<?xml version="1.0" encoding="UTF-8" standalone="no"?>
<!DOCTYPE svg PUBLIC "-//W3C//DTD SVG 1.1//EN"
 "http://www.w3.org/Graphics/SVG/1.1/DTD/svg11.dtd">
<!-- Generated by graphviz version 2.43.0 (0)
 -->
<!-- Title: %3 Pages: 1 -->
<svg width="606pt" height="188pt"
 viewBox="0.00 0.00 605.87 188.00" xmlns="http://www.w3.org/2000/svg" xmlns:xlink="http://www.w3.org/1999/xlink">
<g id="graph0" class="graph" transform="scale(1 1) rotate(0) translate(4 184)">
<title>%3</title>
<polygon fill="white" stroke="transparent" points="-4,4 -4,-184 601.87,-184 601.87,4 -4,4"/>
<!-- [root] var.build&#45;number -->
<g id="node1" class="node">
<title>[root] var.build&#45;number</title>
<polygon fill="none" stroke="black" points="526.84,-36 393.84,-36 393.84,0 532.84,0 532.84,-30 526.84,-36"/>
<polyline fill="none" stroke="black" points="526.84,-36 526.84,-30 "/>
<polyline fill="none" stroke="black" points="532.84,-30 526.84,-30 "/>
<text text-anchor="middle" x="463.34" y="-14.3" font-family="Times,serif" font-size="14.00">var.build&#45;number</text>
</g>
<!-- [root] var.complex -->
<g id="node2" class="node">
<title>[root] var.complex</title>
<polygon fill="none" stroke="black" points="200.34,-36 104.34,-36 104.34,0 206.34,0 206.34,-30 200.34,-36"/>
<polyline fill="none" stroke="black" points="200.34,-36 200.34,-30 "/>
<polyline fill="none" stroke="black" points="206.34,-30 200.34,-30 "/>
<text text-anchor="middle" x="155.34" y="-14.3" font-family="Times,serif" font-size="14.00">var.complex</text>
</g>
<!-- [root] output.complex (expand) -->
<g id="node3" class="node">
<title>[root] output.complex (expand)</title>
<ellipse fill="none" stroke="black" cx="155.34" cy="-90" rx="155.17" ry="18"/>
<text text-anchor="middle" x="155.34" y="-86.3" font-family="Times,serif" font-size="14.00">[root] output.complex (expand)</text>
</g>
<!-- [root] output.complex (expand)&#45;&gt;[root] var.complex -->
<g id="edge1" class="edge">
<title>[root] output.complex (expand)&#45;&gt;[root] var.complex</title>
<path fill="none" stroke="black" d="M155.34,-71.7C155.34,-63.98 155.34,-54.71 155.34,-46.11"/>
<polygon fill="black" stroke="black" points="158.84,-46.1 155.34,-36.1 151.84,-46.1 158.84,-46.1"/>
</g>
<!-- [root] output.test (expand) -->
<g id="node4" class="node">
<title>[root] output.test (expand)</title>
<ellipse fill="none" stroke="black" cx="463.34" cy="-90" rx="134.58" ry="18"/>
<text text-anchor="middle" x="463.34" y="-86.3" font-family="Times,serif" font-size="14.00">[root] output.test (expand)</text>
</g>
<!-- [root] output.test (expand)&#45;&gt;[root] var.build&#45;number -->
<g id="edge2" class="edge">
<title>[root] output.test (expand)&#45;&gt;[root] var.build&#45;number</title>
<path fill="none" stroke="black" d="M463.34,-71.7C463.34,-63.98 463.34,-54.71 463.34,-46.11"/>
<polygon fill="black" stroke="black" points="466.84,-46.1 463.34,-36.1 459.84,-46.1 466.84,-46.1"/>
</g>
<!-- [root] root -->
<g id="node5" class="node">
<title>[root] root</title>
<ellipse fill="none" stroke="black" cx="309.34" cy="-162" rx="58.49" ry="18"/>
<text text-anchor="middle" x="309.34" y="-158.3" font-family="Times,serif" font-size="14.00">[root] root</text>
</g>
<!-- [root] root&#45;&gt;[root] output.complex (expand) -->
<g id="edge3" class="edge">
<title>[root] root&#45;&gt;[root] output.complex (expand)</title>
<path fill="none" stroke="black" d="M277.8,-146.67C255.64,-136.59 225.65,-122.96 200.9,-111.71"/>
<polygon fill="black" stroke="black" points="202.25,-108.48 191.69,-107.53 199.35,-114.85 202.25,-108.48"/>
</g>
<!-- [root] root&#45;&gt;[root] output.test (expand) -->
<g id="edge4" class="edge">
<title>[root] root&#45;&gt;[root] output.test (expand)</title>
<path fill="none" stroke="black" d="M340.87,-146.67C363.11,-136.56 393.23,-122.87 418.04,-111.59"/>
<polygon fill="black" stroke="black" points="419.6,-114.73 427.25,-107.4 416.7,-108.35 419.6,-114.73"/>
</g>
</g>
</svg>
